<mxfile host="app.diagrams.net" modified="2022-05-02T22:23:56.715Z" agent="5.0 (Windows NT 10.0; Win64; x64) AppleWebKit/537.36 (KHTML, like Gecko) Chrome/100.0.4896.127 Safari/537.36" etag="bU64L6Htwwjvr4ssA4vQ" version="17.4.2" type="github">
  <diagram id="KjGTyVRo8gdudTEFM9Ci" name="Page-1">
    <mxGraphModel dx="782" dy="468" grid="1" gridSize="10" guides="1" tooltips="1" connect="1" arrows="1" fold="1" page="1" pageScale="1" pageWidth="850" pageHeight="1100" math="0" shadow="0">
      <root>
        <mxCell id="0" />
        <mxCell id="1" parent="0" />
        <mxCell id="vxb2CrZ4aAHvM40dNzmO-1" value="Admin" style="shape=umlActor;verticalLabelPosition=bottom;verticalAlign=top;html=1;outlineConnect=0;" vertex="1" parent="1">
          <mxGeometry x="40" y="230" width="30" height="60" as="geometry" />
        </mxCell>
        <mxCell id="vxb2CrZ4aAHvM40dNzmO-2" value="updateDrink" style="html=1;verticalAlign=bottom;startArrow=circle;startFill=1;endArrow=open;startSize=6;endSize=8;rounded=0;entryX=-0.067;entryY=0.425;entryDx=0;entryDy=0;entryPerimeter=0;" edge="1" parent="1" target="vxb2CrZ4aAHvM40dNzmO-4">
          <mxGeometry x="0.25" y="10" width="80" relative="1" as="geometry">
            <mxPoint x="80" y="259.5" as="sourcePoint" />
            <mxPoint x="180" y="260" as="targetPoint" />
            <mxPoint y="1" as="offset" />
          </mxGeometry>
        </mxCell>
        <mxCell id="vxb2CrZ4aAHvM40dNzmO-3" value="userSession" style="shape=umlLifeline;perimeter=lifelinePerimeter;whiteSpace=wrap;html=1;container=1;collapsible=0;recursiveResize=0;outlineConnect=0;" vertex="1" parent="1">
          <mxGeometry x="160" y="120" width="100" height="300" as="geometry" />
        </mxCell>
        <mxCell id="vxb2CrZ4aAHvM40dNzmO-4" value="" style="verticalLabelPosition=bottom;verticalAlign=top;html=1;shape=mxgraph.basic.rect;fillColor2=none;strokeWidth=1;size=20;indent=5;" vertex="1" parent="vxb2CrZ4aAHvM40dNzmO-3">
          <mxGeometry x="45" y="60" width="10" height="190" as="geometry" />
        </mxCell>
        <mxCell id="vxb2CrZ4aAHvM40dNzmO-5" value="loop" style="shape=umlFrame;whiteSpace=wrap;html=1;" vertex="1" parent="1">
          <mxGeometry x="310" y="175" width="300" height="205" as="geometry" />
        </mxCell>
        <mxCell id="vxb2CrZ4aAHvM40dNzmO-6" value="updatePhoto" style="edgeStyle=orthogonalEdgeStyle;rounded=0;orthogonalLoop=1;jettySize=auto;html=1;entryX=-0.033;entryY=0.471;entryDx=0;entryDy=0;entryPerimeter=0;" edge="1" parent="1" source="vxb2CrZ4aAHvM40dNzmO-4" target="vxb2CrZ4aAHvM40dNzmO-11">
          <mxGeometry x="-0.1538" y="20" relative="1" as="geometry">
            <mxPoint x="350" y="270" as="targetPoint" />
            <Array as="points">
              <mxPoint x="260" y="270" />
              <mxPoint x="260" y="270" />
            </Array>
            <mxPoint as="offset" />
          </mxGeometry>
        </mxCell>
        <mxCell id="vxb2CrZ4aAHvM40dNzmO-8" value="if item is active" style="text;html=1;align=center;verticalAlign=middle;resizable=0;points=[];autosize=1;strokeColor=none;fillColor=none;" vertex="1" parent="1">
          <mxGeometry x="310" y="280" width="90" height="20" as="geometry" />
        </mxCell>
        <mxCell id="vxb2CrZ4aAHvM40dNzmO-9" value="coffeeShop" style="shape=umlLifeline;perimeter=lifelinePerimeter;whiteSpace=wrap;html=1;container=1;collapsible=0;recursiveResize=0;outlineConnect=0;" vertex="1" parent="1">
          <mxGeometry x="500" y="100" width="100" height="310" as="geometry" />
        </mxCell>
        <mxCell id="vxb2CrZ4aAHvM40dNzmO-11" value="" style="verticalLabelPosition=bottom;verticalAlign=top;html=1;shape=mxgraph.basic.rect;fillColor2=none;strokeWidth=1;size=20;indent=5;" vertex="1" parent="1">
          <mxGeometry x="540" y="190" width="20" height="170" as="geometry" />
        </mxCell>
        <mxCell id="vxb2CrZ4aAHvM40dNzmO-12" value="return item" style="html=1;verticalAlign=bottom;endArrow=open;dashed=1;endSize=8;rounded=0;entryX=1.233;entryY=0.789;entryDx=0;entryDy=0;entryPerimeter=0;exitX=-0.033;exitY=0.831;exitDx=0;exitDy=0;exitPerimeter=0;" edge="1" parent="1" source="vxb2CrZ4aAHvM40dNzmO-11" target="vxb2CrZ4aAHvM40dNzmO-4">
          <mxGeometry relative="1" as="geometry">
            <mxPoint x="310" y="330" as="sourcePoint" />
            <mxPoint x="230" y="330" as="targetPoint" />
          </mxGeometry>
        </mxCell>
        <mxCell id="vxb2CrZ4aAHvM40dNzmO-13" value="Error Message" style="html=1;verticalAlign=bottom;endArrow=block;rounded=0;exitX=0;exitY=0.992;exitDx=0;exitDy=0;exitPerimeter=0;" edge="1" parent="1" source="vxb2CrZ4aAHvM40dNzmO-11" target="vxb2CrZ4aAHvM40dNzmO-3">
          <mxGeometry x="0.2103" width="80" relative="1" as="geometry">
            <mxPoint x="360" y="240" as="sourcePoint" />
            <mxPoint x="440" y="240" as="targetPoint" />
            <Array as="points">
              <mxPoint x="280" y="360" />
            </Array>
            <mxPoint as="offset" />
          </mxGeometry>
        </mxCell>
      </root>
    </mxGraphModel>
  </diagram>
</mxfile>
